# xmcd
#
# Track frame offsets: 
#        150
#        13190
#        34634
#        48831
#        61420
#        80358
#        91353
#        117017
#        134213
#        154086
#        174628
#        192828
#        209536
#        227107
#
# Disc length: 3245 seconds
#
# Revision: 0
# Processed by: cddbd v1.5.2PL0 Copyright (c) Steve Scherf et al.
# Submitted via: ExactAudioCopy v0.99pb5
#
DISCID=bc0cab0e
DTITLE=Jason and the Scorchers - Halcyon Times
DYEAR=2010
DGENRE=Rock
TTITLE0=Moonshine Guy - Releasing Celtic Prisoners
TTITLE1=Beat on the Mountain
TTITLE2=Mona Lee
TTITLE3=Fear Not Gear Rot
TTITLE4=Mother of Greed
TTITLE5=Gettin' Nowhere Fast
TTITLE6=Land of the Free
TTITLE7=Golden Days
TTITLE8=Deep Holy Water
TTITLE9=Twang Town Blues
TTITLE10=Days of Wine and Roses
TTITLE11=Better Than This
TTITLE12=When Did It Get So Easy (to Lie to Me)
TTITLE13=We've Got It Goin' On
EXTD=
EXTT0=
EXTT1=
EXTT2=
EXTT3=
EXTT4=
EXTT5=
EXTT6=
EXTT7=
EXTT8=
EXTT9=
EXTT10=
EXTT11=
EXTT12=
EXTT13=
PLAYORDER=
